PathFileType	4	(X/Y/Z)	41_2_22_p1_0-448_filt_butterworth.trc
DataRate	CameraRate	NumFrames	NumMarkers	Units	OrigDataRate	OrigDataStartFrame	OrigNumFrames
59.0	59.0	7	27	m	59.0	280	448
Frame#	Time	RHip			RKnee			RAnkle			RBigToe			RSmallToe			RHeel			LHip			LKnee			LAnkle			LBigToe			LSmallToe			LHeel			Neck			Head			Nose			RShoulder			RElbow			RWrist			RThumb			RIndex			RPinky			LShoulder			LElbow			LWrist			LThumb			LIndex			LPinky			
		X1	Y1	Z1	X2	Y2	Z2	X3	Y3	Z3	X4	Y4	Z4	X5	Y5	Z5	X6	Y6	Z6	X7	Y7	Z7	X8	Y8	Z8	X9	Y9	Z9	X10	Y10	Z10	X11	Y11	Z11	X12	Y12	Z12	X13	Y13	Z13	X14	Y14	Z14	X15	Y15	Z15	X16	Y16	Z16	X17	Y17	Z17	X18	Y18	Z18	X19	Y19	Z19	X20	Y20	Z20	X21	Y21	Z21	X22	Y22	Z22	X23	Y23	Z23	X24	Y24	Z24	X25	Y25	Z25	X26	Y26	Z26	X27	Y27	Z27	
280	4.745762711864407	0.30846949700036924	0.5234793949134982	-0.15030200585564274	0.3180801520390958	0.5379210521253484	0.2899383975730533	0.3432927796721405	0.6828814121127111	0.7293367233380568	0.3371112019772584	0.5041502723321306	0.7429867096663746	0.39733734121937353	0.5607154736856428	0.7610510169618434	0.33234366608361154	0.7723719338486418	0.8198991788415935	0.11243508988559037	0.5224890540272258	-0.16115825376943965	0.12099067352016256	0.5776397414866286	0.2759162698121228	0.11434120244258554	0.7175798102220308	0.7388963935295582	0.13835366581060754	0.5531565491745899	0.7455156582649021	0.08302257451963978	0.5545626781483557	0.7417115003192785	0.12155860976175074	0.8112038490901314	0.8110242167489264	0.2517424931189001	0.5132602782398199	-0.6355461580430829	0.2473085914284716	0.34044935068100385	-0.8976464814863361	0.1729421587262419	0.3430320405668907	-0.7469579642677802	0.3853516182114487	0.49780553462979626	-0.5899034961438523	0.5755090323978014	0.4246524115360665	-0.4185877295113001	0.5144843931884682	0.21049820648431636	-0.25967972893785657	0.40518287935273256	0.18341795810432204	-0.23647021435464202	0.3943470913645755	0.16076000375379026	-0.1927286050353517	0.4161581391302432	0.20894331027633617	-0.15789030712515656	0.08955823636897761	0.5343316763871426	-0.60702727813309	-0.16405057178069782	0.561437908277857	-0.48098868472931966	-0.24092759985653608	0.4652759336166599	-0.2990457067023661	-0.16368935302688176	0.403711853030814	-0.22539980936230603	-0.18176693450939346	0.39527603448152665	-0.1894755353087734	-0.1993587002992683	0.41972261488539553	-0.17769937729059176
281	4.762711864406779	0.30882312966294956	0.5232012180648055	-0.1516054911534735	0.3177104576042171	0.5367771819142422	0.2907842259951038	0.34347874056801464	0.6829924967068448	0.7304504447307519	0.33734326604652215	0.5039609660867757	0.7429986494179482	0.3972442702109661	0.5608399831489537	0.7607292224502895	0.3322854614346008	0.7725061437121432	0.819974645574516	0.11243156831962524	0.5209491440716653	-0.1617137733692086	0.12076699242430709	0.5774447560125496	0.27592543833741157	0.11429625779824687	0.7175713334824847	0.7389292415419307	0.13848719716576496	0.5534563343826298	0.7472749374640227	0.08305150635367048	0.5503173849774152	0.7405102668307467	0.12132950414327093	0.8109694757245973	0.8110078582566924	0.2534288293663288	0.5136049391507471	-0.6316087651942902	0.24732715467425956	0.3404897654460293	-0.8962961834519813	0.17402681773505932	0.3465833806030145	-0.7441091407636288	0.3873171197647665	0.49780130701100533	-0.5898343396000055	0.5883422823452005	0.43665875598577697	-0.42061327650591007	0.5352845121565805	0.21520207667109192	-0.25524714248050023	0.4318096851344637	0.19592654911573043	-0.23101193812996676	0.42090518797367443	0.17501325212573138	-0.18502447774101694	0.43935749860439555	0.2126068994615553	-0.15154294046037453	0.08968343034883187	0.5346144747578037	-0.6066663182615032	-0.16360587252176484	0.5616803293944034	-0.48360844512682294	-0.25396196045636066	0.46791078242203243	-0.3027792878835799	-0.1815532155621058	0.4044730764783724	-0.23162890942694303	-0.1986460663274535	0.4138393817546205	-0.19064132786212137	-0.21347185194332863	0.4334092232183596	-0.186450990614874
282	4.779661016949152	0.30943307672794507	0.5233470363164301	-0.15001943097824	0.31829125844318445	0.5368487085584913	0.29495387603598966	0.3439162909840584	0.682834867554322	0.7335188854877233	0.338780071946163	0.5039890398893683	0.7430791383177789	0.39715128296442354	0.5608246005511965	0.7607585582747988	0.3323905870881415	0.772335836416454	0.8209607885199639	0.11267935296839662	0.5200287872315342	-0.16097069862016872	0.12066988672347627	0.5772672944211464	0.27719765759743725	0.11423564573948548	0.7175638133691632	0.7389461319624843	0.138594221666558	0.5538365004877877	0.7502196837489605	0.08304317232105636	0.5483928649174414	0.7407217052899541	0.12113285220579445	0.8105666116916128	0.8114148860482692	0.2550368514594145	0.5128912091128537	-0.6274608456761579	0.24736952506264054	0.33974437315079903	-0.8948580834406901	0.17528000940132918	0.3510623831447357	-0.7397757130491008	0.39004853056435906	0.49774530611857504	-0.5889960491496752	0.6011580224603722	0.4479450775233938	-0.4224106281407296	0.5527270152019567	0.22381095131216044	-0.25094119413148086	0.4491061033296998	0.20564843602864818	-0.23017407187885325	0.4418787522209536	0.19103204358430978	-0.179641513416599	0.4560640458674449	0.21556362958595096	-0.14832512706647194	0.08986925936037675	0.5348545177796783	-0.6056068148708024	-0.16258096692559137	0.5623248668956452	-0.48564122999421555	-0.2664781423043198	0.4746944220861863	-0.3046898660228579	-0.19725015762139242	0.4159022772769299	-0.23818423771547653	-0.21326029518014927	0.4306007030673277	-0.19303506706910079	-0.22427032450496853	0.44110776272419955	-0.1972502746251377
283	4.796610169491525	0.30997897681832726	0.5236151859474141	-0.147999086111711	0.3191589648315767	0.5369959154966555	0.30010072622548184	0.34440069520600486	0.6828714086075308	0.7365537352542914	0.34165236364421964	0.5036823802152167	0.7429991328143474	0.39707806874620194	0.5607720346130922	0.7607243186569213	0.3325582028042269	0.7719792011452209	0.8222275535074208	0.11307734352117334	0.5196382674243054	-0.15964607135248965	0.12068251682147582	0.5767131575711556	0.2781852464302742	0.11420233872676616	0.71756780512591	0.7389516316391461	0.13865544040626124	0.5541489113055755	0.7523815708853051	0.0830201262451457	0.5481416060279772	0.7412429369827047	0.121290225699088	0.8105039632708074	0.8127792020286208	0.2564755648350786	0.511968623703339	-0.6244487707460584	0.24741047480514203	0.3373509999333956	-0.893462926015291	0.17615783539047988	0.354525691348556	-0.7343375113154502	0.3922461732825732	0.49755029191648625	-0.5870607848687259	0.6109820717741918	0.45650220581617007	-0.4250497269269187	0.5689126522684518	0.2381645170893962	-0.24744827370058428	0.45769933705953575	0.2109822615487169	-0.2324654220242529	0.4557328993356855	0.19791767266719257	-0.1783305680188324	0.4673400660215859	0.2152218877812272	-0.15046520769474064	0.09004298987454934	0.5349827344647335	-0.604230659433625	-0.16120090806794213	0.5631732856221212	-0.48829293162994175	-0.27617209342534715	0.4838678402309409	-0.306228429527607	-0.2093015765240906	0.4295425452720876	-0.24437027063044386	-0.22428715038507388	0.4374842730981393	-0.19688323978418418	-0.23244144560353594	0.443042389956548	-0.20666339546184206
284	4.813559322033898	0.3101901974538379	0.523873133509226	-0.14699672501268016	0.3198483776974469	0.5367742721130428	0.3036093183371817	0.34497963830427275	0.6841359624177602	0.7383607844651443	0.3449555204482668	0.5019599567546141	0.7425249298934017	0.3970411617534622	0.5607398861604944	0.7607551360456162	0.33264512994363227	0.7715525424749713	0.823095914211065	0.11375651485099342	0.5187604629257995	-0.158740150748903	0.12108437876615129	0.5746569914289061	0.2782995664810364	0.11419599402132061	0.7175910335777707	0.7389754751481707	0.1386822259019558	0.5544166600599219	0.753128192844885	0.08299924414160999	0.5483920974364166	0.7415169792390048	0.12199555753894722	0.81131283862942	0.815032111102599	0.2575135209085953	0.512618345313428	-0.622365885441164	0.24744411141274925	0.3336436850022679	-0.8921817806174377	0.17670150825473624	0.3560849755462102	-0.7283795231068247	0.3932362248611779	0.4971805763227268	-0.5842350628740296	0.6165423821552227	0.45996207678425777	-0.4285670687395348	0.584769620555072	0.25568445147804003	-0.24548124050004602	0.4649993924063429	0.2130936558342115	-0.2339539258538381	0.46465387980446793	0.1963085953050708	-0.1804833034934012	0.47636127872707573	0.2145094834912586	-0.1542059348294486	0.09013493083958822	0.5350092306417503	-0.6031480508050675	-0.1602113922065856	0.5637415832384478	-0.49182547860305004	-0.282056035135833	0.4914328218232984	-0.308514337824565	-0.21636685635722963	0.43851757237351807	-0.24900733083712792	-0.23134304411040738	0.43558097839686927	-0.20192345311263443	-0.23812564600708558	0.4430030760510597	-0.212907149242887
285	4.830508474576271	0.3100292424159707	0.5236423248306942	-0.14723080632258045	0.3201797600623967	0.5362293129735144	0.30475621460018243	0.3458552284836739	0.6874058172790487	0.7394124727899923	0.3469100881525038	0.4981770865775799	0.7414652652774898	0.3970777628053819	0.5606647287493531	0.7615036405679149	0.33262509838067783	0.7711650206109733	0.8236367715603399	0.11489393521357946	0.5163395273740384	-0.15856785608327514	0.1221562018981815	0.5704544874648795	0.27828037951332857	0.1142031159854501	0.7176023382752714	0.739056761607234	0.13868102822805844	0.5546191055798501	0.7530536905737217	0.08299233273391954	0.5485728780351411	0.7415476145859108	0.12313131601322451	0.813659328167819	0.8175192025758575	0.2581757269505666	0.5146668688774735	-0.6201579263775527	0.24746981911966642	0.329740086198387	-0.8906288640123923	0.17770503629942805	0.35636999192715985	-0.7228461002267605	0.39340303403589205	0.49679256648669723	-0.5813456030102586	0.6190655358159859	0.4586212110050117	-0.4322040072360219	0.5989720088598801	0.27024784161930987	-0.24504200086805009	0.47869952953185646	0.21336530690673067	-0.23100415743642377	0.47431349596004513	0.19429462234898878	-0.18313923710508437	0.4877358105060211	0.21754030878817468	-0.1549656435713887	0.09023089837562163	0.5350215487958881	-0.6026359461501991	-0.1599608851560612	0.563819301715901	-0.4950982795522831	-0.28510998515972197	0.49649911183981477	-0.3110139993829702	-0.2194496126393918	0.44280953821681185	-0.2512600053995041	-0.2357011946469071	0.4322472361270111	-0.20718121363851497	-0.2408647648475791	0.44319161352363673	-0.21648554010539203
286	4.8474576271186445	0.3096447271469578	0.5216894982457054	-0.14885939879559984	0.3202419051688475	0.5356916936188313	0.3045988396334524	0.34689944305173237	0.6916848157227501	0.7408083353387482	0.34641881948030223	0.4932779915315048	0.7399101356641886	0.397141780021978	0.5603819748177397	0.763523655600983	0.33271471504642186	0.7712226777002686	0.8247266810126096	0.11627395166179741	0.5120187296184375	-0.15892034304055533	0.12366573458539984	0.5655940084093605	0.2791060757714386	0.11423852669229043	0.7175579730582522	0.7392150222709932	0.13861480341905957	0.5546952689799811	0.7528325945203764	0.08299935632740137	0.5486350784041122	0.7414611436756372	0.12414064519892148	0.8179127955444246	0.8195487887550559	0.2587244677553437	0.5158636482091224	-0.6176862907389978	0.24748687079670784	0.3260211181864676	-0.8885185001061345	0.17987828588328394	0.3561879972318042	-0.7187008161411534	0.39334200017345144	0.4969419515489296	-0.579406980695834	0.6205698755856816	0.4555379337830986	-0.43549246932784885	0.6098612475968328	0.2780175704518427	-0.24552174322627573	0.4992141986988592	0.2130313314222451	-0.22412656064304898	0.4893967812657712	0.1968512908169346	-0.18350109919873075	0.5042508438686191	0.22232093163856162	-0.15371681134278015	0.09066034345044019	0.5351881113565501	-0.6026001896593188	-0.16016582113566563	0.5636026114956342	-0.4973003211756655	-0.2867266822342373	0.5001530708416821	-0.31318335396635855	-0.22083564939132844	0.44516771157599594	-0.2512936920941975	-0.23840484773747878	0.4318630191388533	-0.21141455721154187	-0.24123705134973134	0.4434692940634138	-0.21835923445212316
